<svg id="icons8-facebook" xmlns="http://www.w3.org/2000/svg" width="72" height="72" viewBox="0 0 72 72">
  <path id="Path_80" data-name="Path 80" d="M50,15A35,35,0,1,0,85,50,35,35,0,0,0,50,15Z" transform="translate(-14 -14)" fill="#78a2d2"/>
  <path id="Path_81" data-name="Path 81" d="M77.237,64.039a.5.5,0,0,1-.219-.051.5.5,0,0,1-.23-.668c.2-.408.388-.819.566-1.233A29.5,29.5,0,0,0,79,57.073a.5.5,0,1,1,.975.225,30.442,30.442,0,0,1-1.7,5.185q-.277.644-.586,1.275A.5.5,0,0,1,77.237,64.039Zm3.146-10.645-.045,0a.5.5,0,0,1-.454-.542q.087-.97.111-1.944a29.9,29.9,0,0,0-2.051-11.7.5.5,0,1,1,.931-.364,30.9,30.9,0,0,1,2.119,12.093q-.025,1-.115,2.007A.5.5,0,0,1,80.383,53.394ZM27.735,29.728a.492.492,0,0,1-.341-.135.5.5,0,0,1-.024-.707,30.859,30.859,0,0,1,19.238-9.618.5.5,0,0,1,.108.994A29.853,29.853,0,0,0,28.1,29.568.5.5,0,0,1,27.735,29.728Zm1.543,43.056a.5.5,0,0,1-.341-.135,30.871,30.871,0,0,1-5.845-37.955.5.5,0,0,1,.869.495A29.875,29.875,0,0,0,29.62,71.918a.5.5,0,0,1-.342.866ZM63.348,78a.5.5,0,0,1-.217-.95,29.731,29.731,0,0,0,8.843-6.519,30.277,30.277,0,0,0,2.817-3.51.5.5,0,1,1,.824.566A31.029,31.029,0,0,1,72.7,71.213a30.685,30.685,0,0,1-9.14,6.737A.476.476,0,0,1,63.348,78Z" transform="translate(-14 -14)" fill="#1f212b"/>
  <path id="Path_84" data-name="Path 84" d="M50,86A36,36,0,1,1,86,50,36.04,36.04,0,0,1,50,86Zm0-70A34,34,0,1,0,84,50,34.038,34.038,0,0,0,50,16Z" transform="translate(-14 -14)" fill="#1f212b"/>
  <path id="Fill_Logo" data-name="Fill Logo" d="M44.5,84V59.5h-9v-9h9V41.529c-.195-8.049,5.9-15.88,20-11.538L64.471,38.5l-4.9-.032c-3.77,0-5.069,1.246-5.069,3.962V50.5H65.277l-1.894,9H54.5V84" transform="translate(-14 -14)" fill="#fefdef"/>
  <path id="Outline_Logo" data-name="Outline Logo" d="M55,84H54V59h8.977l1.683-8H54V42.43c0-3.128,1.666-4.462,5.569-4.462l4.4.029L64,30.363c-6.137-1.817-11.193-1.4-14.641,1.211A11.828,11.828,0,0,0,45,41.517V51H36v8h9V84H44V60H35V50h9V41.529a12.8,12.8,0,0,1,4.754-10.752c2.636-2,7.534-3.836,15.893-1.264l.354.109L64.968,39l-5.4-.036c-3.8,0-4.566,1.325-4.566,3.462V50H65.892l-2.1,10H55Z" transform="translate(-14 -14)" fill="#1f212b"/>
</svg>
