<svg id="icons8-Google" xmlns="http://www.w3.org/2000/svg" xmlns:xlink="http://www.w3.org/1999/xlink" width="72" height="72" viewBox="0 0 72 72">
  <defs>
    <linearGradient id="linear-gradient" x1="-0.01" y1="0.869" x2="0.686" y2="-0.903" gradientUnits="objectBoundingBox">
      <stop offset="0" stop-color="#e74c3c"/>
      <stop offset="0.007" stop-color="#e74c3c"/>
      <stop offset="0.557" stop-color="#fa528c"/>
      <stop offset="1" stop-color="#e74c3c"/>
    </linearGradient>
    <linearGradient id="linear-gradient-2" x1="-0.156" y1="0.178" x2="-0.156" y2="-0.41" gradientUnits="objectBoundingBox">
      <stop offset="0" stop-color="#feaa53"/>
      <stop offset="0.612" stop-color="#ffcd49"/>
      <stop offset="1" stop-color="#ffde44"/>
    </linearGradient>
    <linearGradient id="linear-gradient-3" x1="0.022" y1="-1.317" x2="0.022" y2="-0.664" gradientUnits="objectBoundingBox">
      <stop offset="0" stop-color="#42d778"/>
      <stop offset="0.428" stop-color="#3dca76"/>
      <stop offset="1" stop-color="#34b171"/>
    </linearGradient>
    <linearGradient id="linear-gradient-4" x1="-0.675" y1="-0.249" x2="-0.675" y2="-0.691" gradientUnits="objectBoundingBox">
      <stop offset="0" stop-color="#155cde"/>
      <stop offset="0.278" stop-color="#1f7fe5"/>
      <stop offset="0.569" stop-color="#279ceb"/>
      <stop offset="0.82" stop-color="#2cafef"/>
      <stop offset="1" stop-color="#2eb5f0"/>
    </linearGradient>
  </defs>
  <g id="Background_Logo" data-name="Background Logo">
    <path id="Path_85" data-name="Path 85" d="M50,85A35,35,0,1,0,15,50,35,35,0,0,0,50,85Z" transform="translate(-14 -14)" fill="#ec4d54"/>
    <path id="Path_86" data-name="Path 86" d="M22.8,33.228a.5.5,0,0,1,.219.051.5.5,0,0,1,.23.668c-.2.408-.388.819-.566,1.233a29.5,29.5,0,0,0-1.643,5.014.5.5,0,1,1-.975-.225,30.442,30.442,0,0,1,1.7-5.185q.277-.644.586-1.275A.5.5,0,0,1,22.8,33.228ZM19.652,43.873l.045,0a.5.5,0,0,1,.454.542q-.087.97-.111,1.944a29.9,29.9,0,0,0,2.051,11.7.5.5,0,1,1-.931.364,30.9,30.9,0,0,1-2.119-12.093q.025-1,.115-2.007A.5.5,0,0,1,19.652,43.873ZM72.3,67.539a.492.492,0,0,1,.341.135.5.5,0,0,1,.024.707A30.859,30.859,0,0,1,53.427,78a.5.5,0,0,1-.108-.994A29.853,29.853,0,0,0,71.933,67.7.5.5,0,0,1,72.3,67.539ZM70.757,24.483a.5.5,0,0,1,.341.135,30.871,30.871,0,0,1,5.845,37.955.5.5,0,1,1-.869-.495,29.875,29.875,0,0,0-5.659-36.729.5.5,0,0,1,.342-.866Zm-34.07-5.217a.5.5,0,0,1,.217.95,29.731,29.731,0,0,0-8.843,6.519,30.277,30.277,0,0,0-2.817,3.51.5.5,0,1,1-.824-.566,31.029,31.029,0,0,1,2.911-3.625,30.685,30.685,0,0,1,9.14-6.737A.476.476,0,0,1,36.687,19.266Z" transform="translate(-14.035 -11.267)" fill="#1f212b"/>
    <path id="Path_87" data-name="Path 87" d="M50,14A36,36,0,1,1,14,50,36.04,36.04,0,0,1,50,14Zm0,70A34,34,0,1,0,16,50,34.038,34.038,0,0,0,50,84Z" transform="translate(-14 -14)" fill="#1f212b"/>
  </g>
  <g id="Google" transform="translate(14.767 14.774)">
    <path id="Path_76" data-name="Path 76" d="M112.439,48.549l-1.115,1.2a3.271,3.271,0,0,1-4.193.489,12.429,12.429,0,0,0-8.956-1.93A13.768,13.768,0,0,0,88.7,54.8l-6.537-4.95A21.559,21.559,0,0,1,100.259,40a20.891,20.891,0,0,1,11.618,3.631A3.256,3.256,0,0,1,112.439,48.549Zm0,0" transform="translate(-78.68 -40)" stroke="#1f212b" stroke-width="1" fill="url(#linear-gradient)"/>
    <path id="Path_77" data-name="Path 77" d="M56.12,148.045a13.283,13.283,0,0,0,1.034,5.667l-6.684,4.925a20.754,20.754,0,0,1-2.239-6.692A21.5,21.5,0,0,1,51.447,136.8l6.537,4.95A13.069,13.069,0,0,0,56.12,148.045Zm0,0" transform="translate(-47.967 -126.95)" stroke="#1f212b" stroke-width="1" fill="url(#linear-gradient-2)"/>
    <path id="Path_78" data-name="Path 78" d="M106.249,313.879a21.864,21.864,0,0,1-33.69-5.992l6.684-4.925a13.472,13.472,0,0,0,12.392,8.247,13.726,13.726,0,0,0,8.41-2.8Zm0,0" transform="translate(-70.056 -276.199)" stroke="#1f212b" stroke-width="1" fill="url(#linear-gradient-3)"/>
    <path id="Path_79" data-name="Path 79" d="M285.168,220.047a20.887,20.887,0,0,1-6.961,15.721L272,230.3a12.764,12.764,0,0,0,3.94-5.007.822.822,0,0,0-.749-1.148h-7.938A3.256,3.256,0,0,1,264,220.885v-1.628A3.256,3.256,0,0,1,267.257,216H281.1A4.062,4.062,0,0,1,285.168,220.047Zm0,0" transform="translate(-242.014 -198.088)" stroke="#1f212b" stroke-width="1" fill="url(#linear-gradient-4)"/>
  </g>
</svg>
