<svg xmlns="http://www.w3.org/2000/svg" width="83.53" height="64.942" viewBox="0 0 83.53 64.942">
  <g id="Instagram" transform="translate(-64 -104)">
    <path id="Path_37" data-name="Path 37" d="M142.807,176.2H109.395A13.424,13.424,0,0,1,96,162.807V129.395A13.424,13.424,0,0,1,109.395,116h33.412A13.424,13.424,0,0,1,156.2,129.395v33.412A13.424,13.424,0,0,1,142.807,176.2Zm0,0" transform="translate(-25.98 -9.742)" fill="#a1d9c6"/>
    <path id="Path_38" data-name="Path 38" d="M96,129.395v8.428h60.2v-8.428A13.424,13.424,0,0,0,142.807,116H109.395A13.424,13.424,0,0,0,96,129.395Zm0,0" transform="translate(-25.98 -9.742)" fill="#fff"/>
    <path id="Path_39" data-name="Path 39" d="M133.065,168.717H99.652A15.64,15.64,0,0,1,84,153.064V119.652A15.64,15.64,0,0,1,99.652,104h33.412a15.64,15.64,0,0,1,15.652,15.652v33.412A15.64,15.64,0,0,1,133.065,168.717Zm-33.412-60.2a11.112,11.112,0,0,0-11.137,11.137v33.412A11.16,11.16,0,0,0,99.652,164.2h33.412A11.16,11.16,0,0,0,144.2,153.064V119.652a11.16,11.16,0,0,0-11.137-11.137Zm0,0" transform="translate(-16.237)" fill="#01382d"/>
    <path id="Path_40" data-name="Path 40" d="M207.288,216a11.288,11.288,0,1,0,11.288,11.288A11.288,11.288,0,0,0,207.288,216Zm0,0" transform="translate(-107.167 -90.929)" fill="#fff"/>
    <path id="Path_41" data-name="Path 41" d="M197.545,231.091A13.585,13.585,0,0,1,184,217.545a2.258,2.258,0,0,1,4.515,0,9.03,9.03,0,1,0,9.03-9.03,2.258,2.258,0,0,1,0-4.515,13.545,13.545,0,1,1,0,27.091Zm0,0" transform="translate(-97.424 -81.187)" fill="#01382d"/>
    <path id="Path_42" data-name="Path 42" d="M92.445,185.47a.946.946,0,0,1-.451-.076c-.151-.075-.3-.075-.452-.151a1.64,1.64,0,0,1-.376-.226,1.338,1.338,0,0,1-.376-.3,1.669,1.669,0,0,1-.3-.376c-.076-.151-.151-.226-.226-.376s-.076-.3-.151-.452c0-.151-.076-.3-.076-.451a.95.95,0,0,1,.076-.452,1.065,1.065,0,0,1,.151-.451,1.6,1.6,0,0,1,.226-.376,1.324,1.324,0,0,1,.3-.376,1.7,1.7,0,0,1,.376-.3c.151-.075.227-.15.376-.226s.3-.075.452-.151a1.845,1.845,0,0,1,.9,0,1.078,1.078,0,0,1,.451.151,1.667,1.667,0,0,1,.376.226.592.592,0,0,1,.3.3,1.628,1.628,0,0,1,.3.376c.076.151.151.226.226.376s.076.3.151.451c0,.151.076.3.076.452a.946.946,0,0,1-.076.451,1.064,1.064,0,0,1-.151.452,1.638,1.638,0,0,1-.226.376,1.336,1.336,0,0,1-.3.376l-.3.3c-.151.076-.226.151-.376.226s-.3.076-.451.151A.95.95,0,0,1,92.445,185.47ZM116.676,172a3.01,3.01,0,1,0,3.01,3.01A3.01,3.01,0,0,0,116.676,172ZM66.258,224.149A2.264,2.264,0,0,1,64,221.892a2.217,2.217,0,0,1,2.258-2.258l67.727-.376a2.264,2.264,0,0,1,2.258,2.258,2.217,2.217,0,0,1-2.258,2.258Zm79.015-.376a2.05,2.05,0,0,1-1.58-.677,1.644,1.644,0,0,1-.3-.376c-.075-.151-.151-.227-.226-.376s-.076-.3-.151-.452c0-.151-.075-.3-.075-.451a.962.962,0,0,1,.075-.452,1.065,1.065,0,0,1,.151-.451,1.633,1.633,0,0,1,.226-.376,1.313,1.313,0,0,1,.3-.376l.3-.3c.151-.075.226-.15.376-.226s.3-.075.452-.151a1.84,1.84,0,0,1,.9,0,1.078,1.078,0,0,1,.452.151,1.691,1.691,0,0,1,.376.226.587.587,0,0,1,.3.3,2.163,2.163,0,0,1,.678,1.58.96.96,0,0,1-.075.452,1.074,1.074,0,0,1-.151.451,1.665,1.665,0,0,1-.226.376,1.329,1.329,0,0,1-.3.376A1.671,1.671,0,0,1,145.272,223.773Zm0,0" transform="translate(0 -55.207)" fill="#01382d"/>
  </g>
</svg>
