<svg xmlns="http://www.w3.org/2000/svg" width="32.602" height="31.423" viewBox="0 0 32.602 31.423">
  <g id="Like_Button" data-name="Like Button" transform="translate(-422.5 -1037.366)">
    <g id="Clothes" transform="translate(446.106 1050.14)">
      <rect id="Right" width="8.496" height="17.634" rx="3" fill="#0a9d53" opacity="0.52"/>
      <path id="Path_73" data-name="Path 73" d="M1.443.826c.8,0,1.443,1.605,1.443,2.4V13.547c0,.8-.646,2.842-1.443,2.842S0,16.988,0,16.191V1.443C0,.646.646.826,1.443.826Z" transform="translate(5.771)" fill="#20c65a" opacity="0.4"/>
      <rect id="Outline" width="8.496" height="17.634" rx="2" stroke-width="1" stroke="#707070" stroke-linecap="round" stroke-linejoin="round" fill="none"/>
      <g id="Component_17_7" data-name="Component 17 – 7" transform="translate(5.33 2.769)">
        <line id="Line_21" data-name="Line 21" x2="1.122" transform="translate(0 0)" fill="none" stroke="#707070" stroke-linecap="round" stroke-width="1"/>
      </g>
      <g id="Component_17_8" data-name="Component 17 – 8" transform="translate(5.33 5.092)">
        <line id="Line_21-2" data-name="Line 21" x2="1.122" transform="translate(0 0)" fill="none" stroke="#707070" stroke-linecap="round" stroke-width="1"/>
      </g>
      <g id="Component_17_9" data-name="Component 17 – 9" transform="translate(5.33 7.737)">
        <line id="Line_21-3" data-name="Line 21" x2="1.122" transform="translate(0 0)" fill="none" stroke="#707070" stroke-linecap="round" stroke-width="1"/>
      </g>
      <g id="Component_17_10" data-name="Component 17 – 10" transform="translate(5.33 10.462)">
        <line id="Line_21-4" data-name="Line 21" x2="1.122" transform="translate(0 0)" fill="none" stroke="#707070" stroke-linecap="round" stroke-width="1"/>
      </g>
      <g id="Component_17_11" data-name="Component 17 – 11" transform="translate(5.33 13.187)">
        <line id="Line_21-5" data-name="Line 21" x2="1.122" transform="translate(0 0)" fill="none" stroke="#707070" stroke-linecap="round" stroke-width="1"/>
      </g>
      <g id="Component_17_12" data-name="Component 17 – 12" transform="translate(5.33 15.429)">
        <line id="Line_21-6" data-name="Line 21" x2="1.122" transform="translate(0 0)" fill="none" stroke="#707070" stroke-linecap="round" stroke-width="1"/>
      </g>
    </g>
    <g id="Hands" transform="translate(423 1037.868)">
      <path id="Hand_Base_Color" data-name="Hand Base Color" d="M9155.188,601.827a4.085,4.085,0,0,1-3.29-1.011c-1.076-.951-2.107-3.5-2.748-5.4-.163-1.216,0-5.718,0-5.718a1.656,1.656,0,0,0-.916-1.82c-3.705-.288-5.914,6.424-4.7,10.866-.488-.018-3.454-.017-4.4,0-2.094,0-2.731-.077-3.88,0-2.328.074-3.124,3.291-1.336,4.789-2.485.6-2.646,4.269,0,5.623-2.392,1.843-.009,4.528,1.643,4.833C9133.921,617.278,9138,618,9138,618s14.4,1.147,17.188-2.18C9155.158,610.592,9155.188,601.827,9155.188,601.827Z" transform="translate(-9132 -587.868)" fill="#faefde"/>
      <path id="Shadow_Light" data-name="Shadow Light" d="M9143.466,605.232s.263-1.821.276-2.425c-3.191-.374-5.506-4.558-5.506-4.558l-.936-9.677-1.854.452s-.517,5.907.7,9.944C9137.948,605.453,9143.466,605.232,9143.466,605.232Z" transform="translate(-9120.501 -588.516)" fill="#fff7f0"/>
      <path id="Shadow_Dark" data-name="Shadow Dark" d="M9161.007,932.7h-19.271l2.169,2.243,6.224.449,8.5-.692Z" transform="translate(-9138.277 -905.062)" fill="#efd8be"/>
      <path id="Hand_Outline" data-name="Hand Outline" d="M9155.188,601.827a4.085,4.085,0,0,1-3.29-1.011c-1.076-.951-2.107-3.5-2.748-5.4-.163-1.216,0-5.718,0-5.718a1.656,1.656,0,0,0-.916-1.82c-3.705-.288-5.914,6.424-4.7,10.866-.488-.018-3.454-.017-4.4,0-2.094,0-2.731-.077-3.88,0-2.328.074-3.124,3.291-1.336,4.789-2.485.6-2.646,4.269,0,5.623-2.392,1.843-.009,4.528,1.643,4.833C9133.921,617.278,9138,618,9138,618s14.4,1.147,17.188-2.18C9155.158,610.592,9155.188,601.827,9155.188,601.827Z" transform="translate(-9132 -587.868)" fill="none" stroke="#707070" stroke-linecap="round" stroke-width="1"/>
    </g>
  </g>
</svg>
