<svg xmlns="http://www.w3.org/2000/svg" width="65.428" height="65.428" viewBox="0 0 65.428 65.428">
  <g id="Line" transform="translate(-68 -68)">
    <path id="Path_54" data-name="Path 54" d="M122.558,135.445H84.887A12.887,12.887,0,0,1,72,122.558V84.887A12.887,12.887,0,0,1,84.887,72h37.671a12.887,12.887,0,0,1,12.887,12.887v37.671A12.887,12.887,0,0,1,122.558,135.445Zm0,0" transform="translate(-3.009 -3.009)" fill="#a1d9c6"/>
    <path id="Path_55" data-name="Path 55" d="M119.549,133.428H81.879A13.894,13.894,0,0,1,68,119.549V81.879A13.894,13.894,0,0,1,81.879,68h37.671a13.894,13.894,0,0,1,13.879,13.879v37.671A13.894,13.894,0,0,1,119.549,133.428ZM81.879,69.983a11.909,11.909,0,0,0-11.9,11.9v37.671a11.909,11.909,0,0,0,11.9,11.9h37.671a11.909,11.909,0,0,0,11.9-11.9V81.879a11.909,11.909,0,0,0-11.9-11.9Zm0,0" fill="#01382d"/>
    <path id="Path_56" data-name="Path 56" d="M156.686,138.887c0-9.31-9.558-16.887-21.3-16.887s-21.3,7.576-21.3,16.887c0,8.345,7.578,15.333,17.816,16.656.7.146,1.991.163,1.991,1.65s-.991,2.478-.991,3.47a1.066,1.066,0,0,0,.991.991c3.47,0,13.762-7.357,18.232-12.382C155.207,145.966,156.686,142.61,156.686,138.887Zm0,0" transform="translate(-34.658 -40.617)" fill="#fff"/>
    <path id="Path_57" data-name="Path 57" d="M132.381,160.644a1.566,1.566,0,0,1-1.487-1.487,3.917,3.917,0,0,1,.464-1.585,4.491,4.491,0,0,0,.528-1.885c0-.8-.418-.96-1.306-1.111-.1-.018-.2-.035-.292-.053-10.535-1.36-18.209-8.573-18.209-17.141,0-9.584,9.779-17.382,21.8-17.382s21.8,7.8,21.8,17.382c0,3.832-1.537,7.338-4.7,10.723C146.786,152.816,136.218,160.644,132.381,160.644Zm1.5-39.653c-11.474,0-20.808,7.353-20.808,16.391,0,8.064,7.311,14.863,17.383,16.165.116.023.2.038.293.052.691.117,2.131.361,2.131,2.088a5.366,5.366,0,0,1-.615,2.29,3.216,3.216,0,0,0-.377,1.179.581.581,0,0,0,.5.5c3.311,0,13.473-7.281,17.862-12.215,3.034-3.246,4.443-6.439,4.443-10.056C154.686,128.344,145.351,120.991,133.878,120.991Zm0,0" transform="translate(-33.154 -39.113)" fill="#01382d"/>
    <path id="Path_58" data-name="Path 58" d="M132.114,143.514H99.4a11.414,11.414,0,0,1-11.4-11.4V99.4A11.414,11.414,0,0,1,99.4,88h32.714c.349,0,.694.021,1.036.052a.5.5,0,0,1-.089.987c-.312-.027-.626-.048-.947-.048H99.4A10.42,10.42,0,0,0,88.991,99.4v32.714A10.42,10.42,0,0,0,99.4,142.523h32.714a10.42,10.42,0,0,0,10.409-10.409V115.262a.5.5,0,1,1,.991,0v16.853A11.414,11.414,0,0,1,132.114,143.514Zm0,0" transform="translate(-15.043 -15.043)" fill="#01382d"/>
    <path id="Path_59" data-name="Path 59" d="M308.5,150.974a.5.5,0,0,1-.5-.5V148.5a.5.5,0,0,1,.991,0v1.983A.5.5,0,0,1,308.5,150.974Zm0,0" transform="translate(-180.52 -60.173)" fill="#01382d"/>
    <path id="Path_60" data-name="Path 60" d="M308.5,172.957a.5.5,0,0,1-.5-.5V168.5a.5.5,0,0,1,.991,0v3.965A.5.5,0,0,1,308.5,172.957Zm0,0" transform="translate(-180.52 -75.217)" fill="#01382d"/>
    <path id="Path_61" data-name="Path 61" d="M149.948,179.9h-4.957A.992.992,0,0,1,144,178.9v-9.913a.991.991,0,1,1,1.983,0v8.922h3.965a.991.991,0,1,1,0,1.983Zm0,0" transform="translate(-57.165 -75.217)" fill="#01382d"/>
    <path id="Path_62" data-name="Path 62" d="M176.991,179.9A.992.992,0,0,1,176,178.9v-9.913a.991.991,0,1,1,1.983,0V178.9A.992.992,0,0,1,176.991,179.9Zm0,0" transform="translate(-81.234 -75.217)" fill="#01382d"/>
    <path id="Path_63" data-name="Path 63" d="M198.939,179.9a.992.992,0,0,1-.85-.481l-4.107-6.845V178.9a.991.991,0,0,1-1.983,0v-9.913a.992.992,0,0,1,1.842-.51l4.106,6.845v-6.334a.991.991,0,1,1,1.983,0V178.9a.992.992,0,0,1-.991.991Zm0,0" transform="translate(-93.269 -75.217)" fill="#01382d"/>
    <path id="Path_64" data-name="Path 64" d="M237.948,177.913h-3.965v-2.974h2.974a.991.991,0,1,0,0-1.983h-2.974v-2.974h3.965a.991.991,0,1,0,0-1.983h-4.957a.992.992,0,0,0-.991.991V178.9a.992.992,0,0,0,.991.991h4.957a.991.991,0,1,0,0-1.983Zm0,0" transform="translate(-123.355 -75.217)" fill="#01382d"/>
  </g>
</svg>
